PathFileType	4	(X/Y/Z)	Patient4_TMGait_0pt7_02_right_40.trc.trc
DataRate	CameraRate	NumFrames	NumMarkers	Units	OrigDataRate	OrigDataStartFrame	OrigNumFrames
85.365853658537	85.365853658537	4	33	mm	85.365853658537	71	       141
Frame#	Time	Sacral			L.Shoulder			Chest			R.Shoulder			Neck			R.ASIS			L.ASIS			R.Thigh.Superior			R.Thigh.Lateral			R.Thigh.Inferior			R.Patella			L.Thigh.Superior			L.Thigh.Lateral			L.Thigh.Inferior			L.Patella			L.Shank.Superior			L.Shank.Lateral			L.Shank.Inferior			R.Shank.Superior			R.Shank.Lateral			R.Shank.Inferior			R.Heel			R.Midfoot.Superior			R.Midfoot.Lateral			R.Toe			L.Heel			L.Midfoot.Lateral			L.Midfoot.Superior			L.Toe			L.Elbow			L.Wrist			R.Elbow			R.Wrist			
		X1	Y1	Z1	X2	Y2	Z2	X3	Y3	Z3	X4	Y4	Z4	X5	Y5	Z5	X6	Y6	Z6	X7	Y7	Z7	X8	Y8	Z8	X9	Y9	Z9	X10	Y10	Z10	X11	Y11	Z11	X12	Y12	Z12	X13	Y13	Z13	X14	Y14	Z14	X15	Y15	Z15	X16	Y16	Z16	X17	Y17	Z17	X18	Y18	Z18	X19	Y19	Z19	X20	Y20	Z20	X21	Y21	Z21	X22	Y22	Z22	X23	Y23	Z23	X24	Y24	Z24	X25	Y25	Z25	X26	Y26	Z26	X27	Y27	Z27	X28	Y28	Z28	X29	Y29	Z29	X30	Y30	Z30	X31	Y31	Z31	X32	Y32	Z32	X33	Y33	Z33	

71	46.060000000000	722.918182038541	1010.947508586818	543.675698397450	913.766502784644	1427.381333647044	358.950077664831	1030.150042330115	1342.190394800346	503.009640281203	979.639916975828	1422.695298305846	685.478486421077	943.022274586281	1482.081418246190	512.533052343168	949.122648283993	935.490839030253	649.469428566550	923.483858181365	947.020637380081	374.419809032656	945.390191984085	724.629605551574	626.126736550630	836.624793367250	631.634894201988	681.882030064045	900.989651579362	565.328966753881	605.722093902895	881.426390474963	479.119591426370	609.745838754193	994.277855984403	772.904972372358	398.110688067660	946.668511116920	641.200972303907	320.784814384849	1056.616157397165	587.572847913062	375.581389389010	1085.340836614710	522.565989461737	370.892503490457	1069.391966820305	448.494535654137	363.174461872518	1000.139841933481	317.709988380044	318.840967003952	1091.261713544069	219.567252568444	368.385814829811	839.914023621847	397.256122394358	612.109907115771	749.945611891085	303.663970437264	666.206167598532	783.480840941784	205.245490446642	602.472764816033	633.963295430078	47.138220938501	560.024757243274	806.826310848844	97.478887121053	601.894457084781	715.608598058090	36.980104079528	635.418149243679	924.099250413612	41.120188552635	628.838340750048	1010.231170721573	42.194865555622	412.286447533931	1080.593809849486	45.499190703304	328.803720481965	1153.565208427295	121.065377899698	346.061019004874	1285.460256725713	88.087514888578	314.418130535146	710.411160918370	1142.170554338640	276.924772684937	629.789001838676	894.420562064281	311.979564771126	1135.296966835655	1123.567622346982	784.101894984693	1341.363153286191	1218.553165067646	676.040880333076	
72	46.071714285714	723.862911888965	1009.588877613419	541.031685869453	913.563165663034	1426.333898780550	356.864293747297	1029.939155168031	1341.629856502187	501.298301545539	978.390896005269	1421.746938063004	683.712665628063	942.178998001962	1481.198174006432	510.571595709946	950.006300134222	934.337236871468	647.749132053020	925.217127188305	945.589004855962	372.778281042087	944.672161839989	723.044733474674	624.830619318219	834.526150087621	631.112979917230	680.506510420807	898.209225943283	564.008554922142	604.618231210575	877.587127184664	477.828318653915	608.526538966755	994.368634011064	768.631129299118	396.690253170642	943.253105196512	636.992690501361	321.673120618407	1052.907627608885	582.640303085707	376.398122834876	1080.113888232306	517.609532147804	372.900255686952	1064.413131563690	444.010609144838	364.862024696458	995.056732680784	312.900753473105	322.176896806906	1086.875734013529	215.340110591607	371.454172079129	835.163027297522	396.412138373432	611.119905485044	744.337012485750	303.917776905101	665.634685973411	776.683403798341	205.011475980267	602.085054729595	625.820438955447	47.804435680258	560.175828908630	798.859988808293	97.586914373178	602.042114980252	707.449248845210	37.198696186343	635.477907116898	915.934810124225	40.677081439192	628.843547419630	1005.640609020786	39.910726019816	416.940369126932	1075.133558720334	42.428495942450	332.624544805682	1149.704253581925	115.988206972295	349.696868670701	1280.666456467081	80.473490261774	316.514505371626	711.064669508263	1140.663786098968	274.853621230571	632.935054690360	891.992904424395	310.635441230889	1132.891042665155	1121.698179262701	782.709242363557	1335.458290306621	1222.533802067017	674.335528763246	
73	46.083428571429	724.796340852247	1008.321781352742	538.331233358946	913.469824210826	1425.301129885590	354.620052325162	1029.836789476279	1341.096842984466	499.468883811945	977.215506602486	1420.842197459176	681.840208795470	941.458649390817	1480.389123662747	508.443568910680	950.904630210078	933.150283936126	645.937252956258	926.912473555413	944.282675244289	371.101150355141	944.166035637869	721.510058199523	623.340088531477	832.834209585983	630.563416636149	679.006813205309	895.892976607835	562.706432997995	603.359807327900	874.215353370071	476.490482094909	607.149394877667	994.834593276508	764.853343177302	395.279212143562	940.489376462289	633.458016246192	322.432335356533	1049.877338189041	578.489580521219	377.207323630752	1075.552419752852	513.231440212877	374.891831472333	1059.908995939473	439.987589041240	366.469805651189	990.161353538499	308.900432482696	324.865498646040	1081.893826194155	211.467439792753	374.225688859555	830.800965846932	395.563387529592	610.055691289703	739.018901975471	304.274310250320	664.993622095730	770.078591368271	204.846497122586	601.671749244824	617.730446347120	48.711552374219	560.343289811195	790.976433941542	97.741233173024	602.199340207944	699.328831734935	37.535413910520	635.554482027906	907.790197977183	40.195091912960	628.853457752100	999.423320053068	38.322991050968	420.765482136376	1068.302089250717	39.973101417178	335.818492588663	1144.709640470394	111.179706168300	353.130786680948	1274.726587447012	72.656769325979	318.711678349486	712.457544464627	1138.612140780894	272.456288661090	637.317664468508	888.855580277011	308.589797104988	1129.795703435848	1119.370308903674	781.541538212250	1329.410741537393	1225.102618884642	673.068988210775	
74	46.095142857143	725.676199799623	1007.247643962423	535.633661037318	913.513099305843	1424.349471206442	352.236954861254	1029.863930678604	1340.623579483789	497.519359505200	976.207169604892	1420.047999711180	679.858141237564	940.922546659154	1479.714756360749	506.157016855630	951.768488913738	931.997668905934	644.039446391095	928.482605702980	943.192764749197	369.367080917785	943.834764404870	720.100292410985	621.676951007307	831.534798377970	630.038156999137	677.400003986310	894.048332017912	561.480807545828	601.973120288525	871.348726939491	475.143462678417	605.673175817812	995.641831136923	761.780840009478	393.916326399852	938.541048558514	630.806398410687	322.929500472339	1047.597834359151	575.287185330931	377.956861221828	1071.771345677817	509.620564014785	376.729479211981	1056.023659497549	436.598616027577	367.873871075595	985.704997966838	305.842477233615	326.680198607349	1076.575522818278	208.111248650316	376.534341455744	826.847527501446	394.759919282958	608.957573197399	733.994024273952	304.794127256403	664.298054235502	763.688727601325	204.806582281321	601.266299497540	609.708198984484	49.931349720138	560.538552136181	783.201857424996	97.956123464876	602.379036343365	691.258646067324	38.022226336561	635.653544276849	899.671221123270	39.683228200696	628.867069971215	992.023604239889	37.357048580008	423.612127448999	1060.553824620161	38.144613600942	338.253962378647	1138.839333315375	106.904198168660	356.143974560188	1267.981656420998	65.227156998101	320.851869268453	714.606755455399	1136.090574952408	269.759629498719	642.938776168761	885.109606824096	305.826043100470	1125.959065420211	1116.617799533595	780.588085070012	1323.310795120813	1226.211626949845	672.230065803219	
